<?xml version="1.0" encoding="iso-8859-1"?>
<!-- Generator: Adobe Illustrator 16.0.0, SVG Export Plug-In . SVG Version: 6.00 Build 0)  -->
<!DOCTYPE svg PUBLIC "-//W3C//DTD SVG 1.1//EN" "http://www.w3.org/Graphics/SVG/1.1/DTD/svg11.dtd">
<svg version="1.1" id="Capa_1" xmlns="http://www.w3.org/2000/svg" xmlns:xlink="http://www.w3.org/1999/xlink" x="0px" y="0px"
	 width="591.879px" height="591.88px" viewBox="0 0 591.879 591.88" style="enable-background:new 0 0 591.879 591.88;"
	 xml:space="preserve">
<g>
	<g id="Layer_1_100_">
		<path d="M543.29,422.803c21.675,0,40.8-15.301,47.175-35.7c5.1-21.675-3.825-43.351-22.95-54.825l-211.65-119.85
			c-25.5-14.025-39.524-14.025-40.8-14.025v-12.75c40.8-8.925,71.4-44.625,71.4-87.975c0-49.725-42.075-90.525-91.799-90.525
			c-33.15,0-59.925,17.85-76.5,45.9c-5.1,8.925-1.275,20.4,7.65,25.5c8.925,5.1,20.4,1.275,25.5-7.65
			c7.65-15.3,25.5-25.5,43.351-25.5c28.049,0,52.274,22.95,52.274,52.275c0,29.325-22.95,52.275-52.274,52.275
			c-5.101,0-10.2,2.55-14.025,5.1c-3.825,3.825-5.1,8.925-5.1,14.025v30.6l0,0c0,0-17.85,1.275-39.525,14.025
			c-52.275,30.6-211.65,119.851-211.65,119.851c-19.125,10.199-28.05,33.149-22.95,54.824c5.1,21.676,24.225,35.7,47.175,35.7
			h87.975v122.4c0,20.399,17.85,38.25,38.25,38.25h242.25c20.4,0,38.25-16.575,38.25-38.25v-122.4L543.29,422.803L543.29,422.803z
			 M552.214,376.902c-1.275,3.825-5.101,7.65-10.2,7.65H454.04v-12.75c0-20.4-17.851-36.976-38.25-36.976H173.54
			c-20.4,0-38.25,16.575-38.25,36.976v12.75h-86.7c-5.1,0-8.925-2.551-10.2-7.65c-1.275-3.825,1.275-8.925,5.1-11.475
			l211.65-118.575c12.75-7.65,26.775-10.2,40.8-10.2s28.049,3.825,40.799,10.2l211.65,119.85
			C550.939,367.978,553.489,373.077,552.214,376.902z"/>
	</g>
</g>
<g>
</g>
<g>
</g>
<g>
</g>
<g>
</g>
<g>
</g>
<g>
</g>
<g>
</g>
<g>
</g>
<g>
</g>
<g>
</g>
<g>
</g>
<g>
</g>
<g>
</g>
<g>
</g>
<g>
</g>
</svg>
