<?xml version="1.0" encoding="iso-8859-1"?>
<!-- Generator: Adobe Illustrator 16.0.0, SVG Export Plug-In . SVG Version: 6.00 Build 0)  -->
<!DOCTYPE svg PUBLIC "-//W3C//DTD SVG 1.1//EN" "http://www.w3.org/Graphics/SVG/1.1/DTD/svg11.dtd">
<svg version="1.1" id="Capa_1" xmlns="http://www.w3.org/2000/svg" xmlns:xlink="http://www.w3.org/1999/xlink" x="0px" y="0px"
	 width="70.074px" height="70.074px" viewBox="0 0 70.074 70.074" style="enable-background:new 0 0 70.074 70.074;"
	 xml:space="preserve">
<g>
	<g>
		<path d="M70.074,39.22h-2.512v-9.281H40.356l-0.157-13.092H23.335l-7.586,13.092H1.895v9.281H0v5.232h1.895v3.271h9.278
			c0.611,3.134,3.375,5.504,6.685,5.504c3.31,0,6.071-2.374,6.682-5.504h20.169c0.611,3.134,3.376,5.504,6.686,5.504
			c3.312,0,6.074-2.374,6.688-5.504h9.479v-3.271h2.512V39.22z M17.857,50.618c-2.318,0-4.2-1.887-4.2-4.199
			c0-2.313,1.884-4.197,4.2-4.197c2.315,0,4.197,1.884,4.197,4.197C22.054,48.736,20.172,50.618,17.857,50.618z M51.395,50.618
			c-2.315,0-4.199-1.887-4.199-4.199c0-2.313,1.884-4.197,4.199-4.197s4.202,1.884,4.202,4.197
			C55.597,48.736,53.712,50.618,51.395,50.618z M64.946,45.109h-6.861c-0.616-3.134-3.376-5.504-6.688-5.504
			c-3.31,0-6.076,2.374-6.684,5.504H24.542c-0.611-3.134-3.373-5.504-6.683-5.504c-3.31,0-6.073,2.374-6.685,5.504h-6.66V32.562
			H17.26l7.586-13.095h12.768l0.158,13.095h27.174V45.109z"/>
		<polygon points="20.443,32.284 35.135,32.284 35.135,22.08 26.35,22.08 		"/>
	</g>
</g>
<g>
</g>
<g>
</g>
<g>
</g>
<g>
</g>
<g>
</g>
<g>
</g>
<g>
</g>
<g>
</g>
<g>
</g>
<g>
</g>
<g>
</g>
<g>
</g>
<g>
</g>
<g>
</g>
<g>
</g>
</svg>
